<svg width="1280" height="720" viewBox="0 0 1280 720" xmlns="http://www.w3.org/2000/svg" role="img" aria-labelledby="title desc">
  <title id="title">NovaTalk preview</title>
  <desc id="desc">Illustration of the NovaTalk Material Design chat layout.</desc>
  <defs>
    <linearGradient id="bg" x1="0" y1="0" x2="1" y2="1">
      <stop offset="0" stop-color="#f3ecff" />
      <stop offset="1" stop-color="#e5f0ff" />
    </linearGradient>
    <linearGradient id="panel" x1="0" y1="0" x2="1" y2="1">
      <stop offset="0" stop-color="#ffffff" stop-opacity="0.86" />
      <stop offset="1" stop-color="#f4f0ff" stop-opacity="0.95" />
    </linearGradient>
  </defs>
  <rect width="1280" height="720" fill="url(#bg)" />
  <rect x="80" y="90" width="1120" height="540" rx="38" fill="url(#panel)" stroke="#c8b7ff" stroke-opacity="0.4" />
  <rect x="140" y="150" width="240" height="420" rx="28" fill="#ede7ff" />
  <rect x="410" y="150" width="520" height="420" rx="28" fill="#ffffff" />
  <rect x="960" y="150" width="200" height="420" rx="28" fill="#efe9ff" />
  <circle cx="210" cy="205" r="32" fill="#6750a4" />
  <rect x="170" y="260" width="180" height="28" rx="12" fill="#ffffff" opacity="0.7" />
  <rect x="170" y="308" width="180" height="28" rx="12" fill="#ffffff" opacity="0.5" />
  <rect x="450" y="200" width="360" height="40" rx="20" fill="#6750a4" opacity="0.15" />
  <rect x="450" y="264" width="240" height="26" rx="13" fill="#6750a4" opacity="0.2" />
  <rect x="450" y="312" width="300" height="120" rx="24" fill="#6750a4" opacity="0.4" />
  <rect x="450" y="452" width="360" height="40" rx="20" fill="#6750a4" opacity="0.25" />
  <rect x="990" y="210" width="140" height="28" rx="14" fill="#6750a4" opacity="0.25" />
  <rect x="990" y="258" width="140" height="28" rx="14" fill="#6750a4" opacity="0.18" />
  <rect x="980" y="310" width="160" height="180" rx="20" fill="#ffffff" opacity="0.7" />
  <text x="640" y="650" font-family="'Roboto Flex', 'Segoe UI', sans-serif" font-weight="600" font-size="32" text-anchor="middle" fill="#4c3f8f">NovaTalk · Material Design 3 Chat Experience</text>
</svg>
